/* XPM */
static char * viseur1_xpm[] = {
"50 50 5 1",
" 	c None",
".	c #FFFFFF",
"+	c #FF0000",
"@	c #DF0202",
"#	c #A00707",
"..................................................",
"..................................................",
"..................................................",
"......................+...........................",
"......................++..........................",
"......................++..........................",
"......................++..........................",
"......................++..........................",
"......................++..........................",
".....................++++.........................",
".................+++++++++++@.....................",
"...............++++++++++++++++...................",
"..............+++++...++...+++++..................",
".............+++......++......+++.................",
"............+++................+++................",
"...........+++..................+++...............",
"...........++...................@++...............",
"..........+++....................+++..............",
"..........++.....................+++..............",
".........+++......................+++.............",
".........+++......................+++.............",
".........++........................++.............",
"........+++........................++@............",
"........+++........................+++............",
"........+++.....................++++++++++++......",
"...++++++++++++.................++++++++++++......",
"...++++++++++++....................++.............",
".........++........................++.............",
".........+++......................+++.............",
".........+++......................+++.............",
"..........++......................++..............",
"..........+++....................+++..............",
"...........++.........++.........++...............",
"...........+++........++........++#...............",
"............+++.......++.......+++................",
".............++++.....++.....++++.................",
"..............++++....++....++++..................",
"................+++++.++.+++++....................",
"..................++++++++++......................",
".....................++++.........................",
"......................++..........................",
"......................++..........................",
"......................++..........................",
".......................+..........................",
"..................................................",
"..................................................",
"..................................................",
"..................................................",
"..................................................",
".................................................."};
